<svg width="33" height="32" viewBox="0 0 33 32" fill="none" xmlns="http://www.w3.org/2000/svg">
<g>
<path d="M23.6447 14.8671C23.1526 14.3555 22.5591 14.082 21.9301 14.082C21.3062 14.082 20.7076 14.3505 20.1952 14.8621L18.5922 16.4576C18.4603 16.3867 18.3285 16.3209 18.2016 16.255C18.019 16.1639 17.8465 16.0777 17.6994 15.9866C16.1979 15.0343 14.8333 13.7933 13.5246 12.1875C12.8905 11.3872 12.4644 10.7135 12.1549 10.0297C12.5709 9.6498 12.9564 9.2547 13.3318 8.87479C13.4738 8.73296 13.6159 8.58607 13.7579 8.44424C14.8232 7.38051 14.8232 6.00273 13.7579 4.93901L12.3731 3.55616C12.2158 3.39913 12.0535 3.23704 11.9013 3.07495C11.5969 2.7609 11.2774 2.43671 10.9476 2.13279C10.4556 1.64652 9.86713 1.38818 9.24826 1.38818C8.62938 1.38818 8.0308 1.64652 7.52353 2.13279C7.51845 2.13786 7.51845 2.13786 7.51338 2.14292L5.78865 3.88034C5.13934 4.52871 4.76903 5.31891 4.68787 6.23574C4.56612 7.71483 5.00238 9.09261 5.33718 9.99424C6.15896 12.2078 7.38656 14.2593 9.21782 16.4576C11.4397 19.1068 14.113 21.1988 17.1668 22.6729C18.3335 23.225 19.8909 23.8784 21.6308 23.9898C21.7373 23.9949 21.8489 24 21.9504 24C23.1222 24 24.1063 23.5796 24.8774 22.7438C24.8824 22.7336 24.8926 22.7286 24.8977 22.7184C25.1614 22.3993 25.4658 22.1106 25.7854 21.8016C26.0035 21.5939 26.2267 21.3761 26.4448 21.1482C26.947 20.6264 27.2108 20.0186 27.2108 19.3956C27.2108 18.7675 26.942 18.1647 26.4296 17.6581L23.6447 14.8671ZM25.4607 20.201C25.4557 20.201 25.4557 20.206 25.4607 20.201C25.2629 20.4137 25.06 20.6062 24.8419 20.8189C24.5121 21.133 24.1773 21.4622 23.8628 21.832C23.3505 22.3791 22.7468 22.6374 21.9555 22.6374C21.8794 22.6374 21.7982 22.6374 21.7221 22.6323C20.2155 22.5361 18.8154 21.9485 17.7654 21.447C14.8942 20.0591 12.3731 18.0887 10.278 15.5915C8.54822 13.5096 7.39164 11.5848 6.62565 9.5181C6.15389 8.25682 5.98141 7.27414 6.05751 6.34718C6.10823 5.75453 6.33651 5.26319 6.75754 4.84276L8.48735 3.11547C8.73591 2.88247 8.99969 2.75583 9.2584 2.75583C9.57799 2.75583 9.83669 2.94832 9.99902 3.11041C10.0041 3.11547 10.0092 3.12054 10.0142 3.1256C10.3237 3.41433 10.6179 3.71319 10.9273 4.03231C11.0846 4.1944 11.2469 4.35649 11.4092 4.52365L12.7941 5.90649C13.3318 6.44342 13.3318 6.93983 12.7941 7.47675C12.647 7.62365 12.505 7.77054 12.3578 7.91237C11.9317 8.348 11.5259 8.75323 11.0846 9.14832C11.0744 9.15846 11.0643 9.16352 11.0592 9.17365C10.623 9.60927 10.7041 10.0348 10.7954 10.3235C10.8005 10.3387 10.8056 10.3539 10.8107 10.3691C11.1708 11.2403 11.6781 12.0609 12.4492 13.0385L12.4542 13.0436C13.8543 14.7658 15.3305 16.1081 16.9588 17.1364C17.1668 17.2681 17.3799 17.3745 17.5828 17.4758C17.7654 17.567 17.9379 17.6531 18.085 17.7443C18.1053 17.7544 18.1255 17.7696 18.1458 17.7797C18.3183 17.8658 18.4806 17.9063 18.648 17.9063C19.0691 17.9063 19.3329 17.6429 19.4191 17.5568L21.154 15.8245C21.3264 15.6523 21.6004 15.4446 21.92 15.4446C22.2345 15.4446 22.4932 15.6421 22.6504 15.8143C22.6555 15.8194 22.6555 15.8194 22.6606 15.8245L25.4557 18.6155C25.9781 19.1322 25.9781 19.664 25.4607 20.201Z" fill="#00B2FF"/>
<path d="M17.6384 5.70896C18.9675 5.93184 20.1748 6.55994 21.1386 7.52236C22.1024 8.48478 22.7264 9.69034 22.9546 11.0175C23.0104 11.3518 23.2996 11.5848 23.6293 11.5848C23.6699 11.5848 23.7054 11.5797 23.746 11.5747C24.1214 11.5139 24.3699 11.1593 24.3091 10.7845C24.0351 9.17874 23.2742 7.71484 22.1126 6.55488C20.9509 5.39491 19.4849 4.6351 17.8768 4.36157C17.5014 4.30079 17.1514 4.54899 17.0855 4.91876C17.0195 5.28853 17.263 5.64817 17.6384 5.70896Z" fill="#00B2FF"/>
<path d="M28.6564 10.5869C28.2049 7.94279 26.957 5.53674 25.0395 3.62203C23.122 1.70732 20.7124 0.461243 18.0645 0.0104253C17.6942 -0.0554245 17.3442 0.197844 17.2782 0.567616C17.2173 0.942453 17.4659 1.29196 17.8413 1.35781C20.2052 1.75798 22.3611 2.87742 24.0757 4.58445C25.7903 6.29654 26.9063 8.44933 27.307 10.8098C27.3628 11.1441 27.652 11.3771 27.9817 11.3771C28.0223 11.3771 28.0578 11.372 28.0984 11.367C28.4687 11.3113 28.7223 10.9567 28.6564 10.5869Z" fill="#00B2FF"/>
</g>
</svg>
