<svg width="604" height="478" viewBox="0 0 604 478" fill="none" xmlns="http://www.w3.org/2000/svg">
<path opacity="0.2" fill-rule="evenodd" clip-rule="evenodd" d="M328.745 476.335L328.167 477.335L327.59 476.335L245.526 334.195L163.077 477L162.5 478L161.923 477L1.5637 199.25L0.986334 198.25H2.14103L167.038 198.25L53.2037 1.08367L52.6264 0.0836701L53.7811 0.08367L602.553 0.083622L603.708 0.0836219L603.131 1.08362L328.745 476.335ZM167.615 199.25L2.71839 199.25L162.5 476L244.948 333.195L167.615 199.25ZM245.526 332.195L168.77 199.25L322.282 199.25L245.526 332.195ZM246.103 333.195L323.436 199.25L324.014 198.25H322.859L168.192 198.25L54.3584 1.08367L601.976 1.08362L328.167 475.335L246.103 333.195Z" fill="white"/>
</svg>
