<svg width="611" height="487" viewBox="0 0 611 487" fill="none" xmlns="http://www.w3.org/2000/svg">
<path fill-rule="evenodd" clip-rule="evenodd" d="M60.9993 5.08366C60.9998 5.05583 61 5.02794 61 5C61 2.23858 58.7614 0 56 0C53.2386 0 51 2.23858 51 5C51 7.76142 53.2386 10 56 10C56.7805 10 57.5192 9.82117 58.1774 9.50226L170.038 203.25L9.94412 203.25C9.58226 200.844 7.50652 199 5 199C2.23857 199 0 201.239 0 204C0 206.761 2.23857 209 5 209C5.73148 209 6.42625 208.843 7.05246 208.561L162.736 478.212C161.673 479.129 161 480.486 161 482C161 484.761 163.239 487 166 487C168.761 487 171 484.761 171 482C171 480.173 170.021 478.576 168.558 477.703L248.526 339.195L328.061 476.954C326.812 477.863 326 479.337 326 481C326 483.761 328.239 486 331 486C333.761 486 336 483.761 336 481C336 479.442 335.287 478.05 334.17 477.133L604.088 9.62151C604.677 9.8654 605.323 10 606 10C608.761 10 611 7.76142 611 5C611 2.23858 608.761 0 606 0C603.239 0 601 2.23858 601 5C601 5.02792 601 5.0558 601.001 5.08362L60.9993 5.08366ZM59.0295 8.97805C59.9525 8.27407 60.6232 7.25617 60.8823 6.08366L601.118 6.08362C601.398 7.3541 602.162 8.44305 603.207 9.14781L333.336 476.578C332.639 476.209 331.844 476 331 476C330.26 476 329.557 476.161 328.924 476.45L249.103 338.195L326.436 204.25L327.014 203.25H325.859H171.192L59.0295 8.97805ZM167.649 477.278L247.948 338.195L170.615 204.25L9.99387 204.25C9.9166 205.819 9.11591 207.198 7.91833 208.06L163.558 477.636C164.28 477.231 165.113 477 166 477C166.578 477 167.133 477.098 167.649 477.278ZM171.77 204.25L248.526 337.195L325.282 204.25H171.77Z" fill="white"/>
</svg>
